# xmcd CD database file
#
# Track frame offsets:
#	150
#	13893
#	28638
#	44363
#	57438
#	70068
#	83870
#	98805
#	112308
#	127833
#	142488
#	157183
#	170555
#	185678
#	201538
#	213428
#	228573
#	241710
#	255155
#	270838
#
# Disc length: 3797 seconds
#
# Revision: 2
# Processed by: cddbd v1.5.1PL0 Copyright (c) Steve Scherf et al.
# Submitted via: CDex 1.50beta9
#
DISCID=270ed314
DTITLE=Bessie Smith - The Collection - 20 Golden Greats
DYEAR=1987
DGENRE=
TTITLE0=Alexander's Ragtime Band
TTITLE1=Gin House Blues
TTITLE2=Careless Love Blues
TTITLE3=Nobody's Blues But Mine
TTITLE4=What's The Matter Now¿
TTITLE5=Baby Doll
TTITLE6=Hard Time Blues
TTITLE7=After You've Gone
TTITLE8=At The Christmas Ball
TTITLE9=Young Woman's Blues
TTITLE10=Florida Bound Blues
TTITLE11=I've Been Mistreated And I Don't Like It
TTITLE12=Jazzbo Brown From Memphis Town
TTITLE13=My Man Blues
TTITLE14=I Want Ev'ry Bit Of It
TTITLE15=New Gulf Coast Blues
TTITLE16=Squeeze Me
TTITLE17=Hard Driving Papa
TTITLE18=Lonesome Desert Blues
TTITLE19=St. Louis Blues
EXTD=YEAR: 1987
EXTT0=
EXTT1=
EXTT2=
EXTT3=
EXTT4=
EXTT5=
EXTT6=
EXTT7=
EXTT8=
EXTT9=
EXTT10=
EXTT11=
EXTT12=
EXTT13=
EXTT14=
EXTT15=
EXTT16=
EXTT17=
EXTT18=
EXTT19=
PLAYORDER=
